<?xml version="1.0" encoding="utf-8"?>
<!-- Generator: Adobe Illustrator 13.0.0, SVG Export Plug-In . SVG Version: 6.00 Build 14948)  -->
<svg version="1.2" baseProfile="tiny" id="Layer_1" xmlns="http://www.w3.org/2000/svg" xmlns:xlink="http://www.w3.org/1999/xlink"
	 x="0px" y="0px" width="451.6px" height="451.6px" viewBox="0 0 451.6 451.6" xml:space="preserve">
<g id="Capa_1">
</g>
<path fill="#D6D6D6" d="M361.3,189.3c-0.6-16.4-17.4-30.2-29-41.5c31.5-55-32.5-89.5-63-90C250,37.5,204,37.1,189.4,39.5
	c-6,1-22.5,6.5-24.8,12.5c-3.1,8.1,7.4,17,16.4,11c-8.5,6.3-11,13-13.2,18.3c-34.2-2.6-54,30.5-47.6,53c-2.3,2.6-4.8,5.2-7.3,8
	c-15.8,19.8-16.1,48.5-1,68.8c-4.9,13.4-4.6,28.7,0.5,41.9c4.9,12.5,14.7,19.5,22.9,29.5c-1.4,25.6-3.5,49.8,36,63.3
	c-14,20-22.8,53.4-13.6,72.3c10.4,21.1,40.7,21.4,60.7,17.6c38.6-7.4,102.6-65.8,87.9-95.4c52-25,56-63.3,30.6-100.9
	C352.4,228.1,362.3,215.3,361.3,189.3z M331,282c-2.7,15-14.3,26.7-24.7,35c-9.2,7.5-29.2,4.6-37.5,6c2,5,18,20.1,18.1,25.8
	c0.6,20.9-17.4,40.6-32.3,51.1c-17,12.1-38.3,20.2-59.4,18.4c-7.3-0.6-19.2-1.7-21.6-10.2c-3-10.1-0.2-21.5,3.1-31.1
	c4.6-13.4,12.3-24.7,18.6-37.2l1.1-1.7l-2-0.5c-27,0-43.6-32.1-35.1-55.1l3.1-8.3l-7.1-10.9c-23.8-8.2-36.5-27.6-26.1-50.3l2.5-5.2
	l-3.9-4.2c-17.4-18.9-15.2-49.4,7.8-60.7l5.2-2.6l-0.5-5.8c6-24.8,11.3-26.9,30-34.9l13.3-3.3L185,80c30-49,76.3-1.2,76.3-1.2
	c39.3-9.8,76.8,33.7,54.4,67.1l-4.6,6.7l6.5,4.9c25.8,19.6,30.7,60.3,0.7,73l-15.5,6.6l14.4,8.7C329.9,253.4,333.5,267.5,331,282z"
	/>
<circle fill="#F4F4F4" cx="248.9" cy="367.5" r="12.3"/>
<path fill="#D6D6D6" d="M283.6,337.1c3.3-0.8,7-2.8,8.8-5.5c-1.3-17.9-27.7-40.6-40.2-17.4c-0.9,19.8,19.2,17,29.4,23.2
	C282.4,337.4,282.9,337.3,283.6,337.1"/>
<path fill="#BCBCBC" d="M194.3,175c7.5-6.5,17.5-9,33.7-9.7c7.1,0.3,7.8-1.8,1.5-4.5c-20.6-7.3-31.4-6.2-44.5,3.1
	c-16.7,11.7-19.2,35.3-8.9,53.6c1.9,2.5,7.3,7.4,7.6,0.6C179,202.2,179.3,185.6,194.3,175z"/>
<path fill="#BCBCBC" d="M270.8,143.3c3.8,12,4.5,23,0.5,35c-2.4,6.7-0.7,8,3.8,2.8c9.4-14.8,15.3-28.1,10.4-43.3
	c-6.2-19.4-30.2-31.4-48.5-24.5c-2.9,1.1-9.1,4.7-2.9,7.1C250.7,120.7,265.3,125.8,270.8,143.3z"/>
<path fill="#BCBCBC" d="M235.8,266.8c-11.5-5.6-15.4-17.6-19.7-26.7c-1.2-5.6-3.4-3.1-4.3,2.4c-0.4,14.3,6.4,33.5,18.4,38
	c15.8,6.1,28.3,1.5,40.7-8.5c1.7-2.1,4.5-7.4-1.1-6.2C257.6,273.1,247.3,272.4,235.8,266.8z"/>
</svg>
