<?xml version="1.0" encoding="utf-8"?>
<!-- Generator: Adobe Illustrator 13.0.0, SVG Export Plug-In . SVG Version: 6.00 Build 14948)  -->
<!DOCTYPE svg PUBLIC "-//W3C//DTD SVG 1.1//EN" "http://www.w3.org/Graphics/SVG/1.1/DTD/svg11.dtd">
<svg version="1.1" id="Capa_1" xmlns="http://www.w3.org/2000/svg" xmlns:xlink="http://www.w3.org/1999/xlink" x="0px" y="0px"
	 width="451.6px" height="451.6px" viewBox="0 0 451.6 451.6" enable-background="new 0 0 451.6 451.6" xml:space="preserve">
<path fill="#D6D6D6" d="M292.7,388.1c8.6-12.2,13.2-24.8,13.2-36.4c0-4.2-0.6-8.3-1.8-12.1c10.1-1.4,19.7-5.5,27.8-11.8
	c14.4-11.2,22.7-28.2,22.7-46.4c0-15.7-6.4-30.9-17.7-42c15.5-11.3,24.7-29.3,24.7-48.6c0-16.4-6.4-31.6-18-42.9
	c4.4-8.7,6.8-18.4,6.8-28.2c0-34.2-27.8-62-62-62c-2.9,0-5.9,0.2-8.8,0.6c-8-11.4-19.7-19.2-33.3-22.1c-8.6-11-21.2-24-32.8-24.3
	c-5.1-0.1-9.6,2.1-13.3,6.7c-2.3,2.8-3.4,5.6-3.4,8.3c0,6.2,6,10.6,13.1,14.3c-15.3,8-26.1,22.9-28.7,39.9c-1.3-0.1-2.6-0.1-3.8-0.1
	c-17.5,0-33.8,9.3-42.9,24.1c0,0,0,0.1,0,0.1c0,15.7-8.8,29.6-21.6,37.1c-7.9,9.9-12.2,22.1-12.2,35.1c0,12.3,3.9,23.9,11.2,33.7
	c-2.4,6.5-3.5,13.3-3.5,20.3c0,10.5,2.7,20.6,7.8,29.6c2.2,2.5,4.1,5.3,5.8,8.4c0,0,0.1,0.1,0.1,0.1h0c0,0.1,0.1,0.2,0.1,0.2
	c6.1,3.9,11.3,9.3,14.7,15c4.7,8.1,7,19.1,5.5,29.1c4.2,13.8,13.6,25.7,26.4,33c-9.6,18.5-15.1,37.4-15.1,52.1
	c0,5.9,0.9,11.3,2.6,15.9c3.4,9.2,9.9,15.6,19,18.7C218.4,447.7,268.9,421.7,292.7,388.1z M181.1,415.4c-4-1.4-6.4-3.7-7.4-7.3
	c-0.8-2.7-1.2-5.7-1.2-8.9c0-25.1,22.7-59,22.9-59.4l1.1-1.7l-2-0.5c-0.1,0-6.3-1.5-10.4-2.9c-16.3-5.5-27.3-20.8-27.3-38
	c0-4.9,0.9-9.6,2.6-14.2l3.1-8.3l-8.4-2.9c-17.2-5.9-28.8-22-28.8-40.2c0-6.3,1.4-12.4,4-18.1l2.5-5.2l-3.9-4.2
	c-6.6-7.2-10.3-16.6-10.3-26.4c0-15,8.4-28.4,21.8-35l5.2-2.6l-0.5-5.8c-0.1-1-0.1-1.9-0.1-2.7c0-18.2,14.8-33.1,33.1-33.1
	c3.2,0,6.3,0.5,9.4,1.4l11.4,3.4l-0.4-12.2c0-0.4,0-0.7,0-1.1c0-20.6,16.7-37.3,37.3-37.3c13.8,0,26.4,7.6,32.9,19.7l3.2,5.9
	l6.5-1.6c3.6-0.9,7.2-1.3,10.9-1.3c24.7,0,44.9,20.1,44.9,44.9c0,9-2.7,17.7-7.7,25.2l-4.6,6.7l6.5,4.9
	c10.8,8.2,17.1,20.7,17.1,34.3c0,17.3-10.3,32.9-26.2,39.6l-15.5,6.6l14.4,8.7c12.7,7.6,20.3,21,20.3,35.7
	c0,12.9-5.9,24.9-16.1,32.9c-4.5,3.5-9.5,6-14.9,7.4c1.7-5.8,2.6-11.7,2.6-17.7c0-8.9-2-17.7-5.7-25.5
	c-6.5-13.5-17.3-23.4-30.5-27.9c-12.2-4.1-25.3-3.1-36.9,2.9c-13.7,7-22.2,20.3-22.2,34.8c0,6.4,1.6,12.5,4.8,18.2
	c6,10.8,15.1,16.2,27.2,16.1c10.3-0.1,18-4.4,23-12.9c0.3-0.5,0.5-1.1,0.5-1.8c0-1.2-0.6-2.3-1.7-3c-1.6-1-3.7-0.5-4.7,1.1
	c-2.4,3.7-6.9,6.2-12.8,6.9c-7.5,0.9-13.6-1.8-17.8-7.8c-5.5-8.1-5.9-16.8-1.2-25.2c4.5-8,15.6-13.2,25.3-11.8
	c12.9,1.8,21.7,9.7,24.8,22.4c0.8,3.2,1.2,6.3,1.2,9.3c0,7.6-2.2,18.2-12.7,25.9c-4.4,3.2-9.6,9.5-9.6,16.2c0,3.5,1.4,8.5,8.2,12.8
	c5.6,3.5,12.4,2.4,19.1-3.2c0.2,10.3-6.1,20.7-9.8,26C258,404.7,215.7,427,181.1,415.4z"/>
<circle fill="#FFFFFF" cx="242" cy="371.5" r="11.3"/>
</svg>
