<?xml version="1.0" encoding="utf-8"?>
<!-- Generator: Adobe Illustrator 13.0.0, SVG Export Plug-In . SVG Version: 6.00 Build 14948)  -->
<svg version="1.2" baseProfile="tiny" id="Layer_1" xmlns="http://www.w3.org/2000/svg" xmlns:xlink="http://www.w3.org/1999/xlink"
	 x="0px" y="0px" width="451.6px" height="451.6px" viewBox="0 0 451.6 451.6" xml:space="preserve">
<g id="Capa_1">
</g>
<g id="Layer_2">
	<path fill="#D6D6D6" d="M364.8,185.3c0-16.4-12.9-28.7-24.5-40c22.4-44.2-40.5-87-71-87.5C250,37.5,204,37.1,189.4,39.5
		c-6,1-22.5,6.5-24.8,12.5c-3.1,8.1,7.4,17,16.4,11c-13,6.3-12,12-14.2,17.3c-34.2-2.6-53,31.5-46.6,54c-2.3,2.6-4.8,5.2-7.3,8
		c-15.8,19.8-16.1,48.5-1,68.8c-4.9,13.4-4.6,28.7,0.5,41.9c4.9,12.5,14.7,19.5,22.9,29.5c-1.4,25.6-3.5,49.8,36,63.3
		c-14,20-22.8,53.4-13.6,72.3c10.4,21.1,40.7,21.4,60.7,17.6c38.6-7.4,102.6-65.8,87.9-95.4c43.7-28.7,62.5-66.8,37.1-104.4
		C358.9,224.6,364.8,204.6,364.8,185.3z M337.5,278.5c-2.7,15-20.8,30.2-31.2,38.5c-9.2,7.5-31.7,11.4-40,12.8
		c2,5,20.5,13.3,20.6,19c0.6,20.9-17.4,40.6-32.3,51.1c-17,12.1-38.3,20.2-59.4,18.4c-7.3-0.6-19.2-1.7-21.6-10.2
		c-3-10.1-0.2-21.5,3.1-31.1c4.6-13.4,12.3-24.7,18.6-37.2l1.1-1.7l-2-0.5c-27,0-40.2-33.5-31.7-56.5l3.1-8.3l-8.4-2.9
		c-23.8-8.2-29.5-34.7-19.1-57.4l2.5-5.2l-3.9-4.2c-17.4-18.9-20.6-49.6,2.4-60.9l5.2-2.6l-0.5-5.8c-2.3-23,12.7-37.1,33.3-34
		l7.4,0.8l1.7-11.6c2.1-20.3,45.7-27.2,54.8-10.3l3.2,5.9L251,83c39.3-9.8,93.6,26,71.2,59.4l-4.6,6.7l6.5,4.9
		c25.8,19.6,30.7,60.3,0.7,73l-15.5,6.6l14.4,8.7C336.4,249.9,340,264,337.5,278.5z"/>
	<circle fill="#F4F4F4" cx="245" cy="368.3" r="12.3"/>
	<path fill="#A5A5A5" d="M271,150.6c5.7,12,2.2,30.4-2.5,42c16.4-10.4,22.8-31.7,14.2-49.6c-9.3-19.4-32.6-27.7-52-18.4
		c-3.1,1.5-5.9,3.3-8.5,5.5C240.6,128.4,262.6,133.1,271,150.6z"/>
	<path fill="#A5A5A5" d="M184.6,183.3c9.8-8.9,29.2-11.6,41.7-10.4c-14.7-12.7-36.9-12.8-51.6,0.6c-16,14.4-17.2,39.1-2.8,55.1
		c2.3,2.6,4.9,4.7,7.7,6.5C172.7,217.9,170.3,196.3,184.6,183.3z"/>
	<g id="Layer_2_1_">
		<path fill="#D6D6D6" d="M266.7,321.3c-20,14.5-1.4,41.7,17.7,25.8c0,0.1,8.7-7.4,12.4-13c6.5-9.8,5.1-10.8,6.8-17
			c6.4-22.3-0.2-47.7-18.6-62.4c-17.7-14.1-44.1-14.5-61.3,0.9c-15.7,14.2-20.1,39.7-1.9,54.9c10.3,6.5,16.3,6.4,25.7,2.8
			c6.5-2.5,19.4-15.9,13.8-20.3c-3.3-2.6-6.2,3.3-8.5,4.9c-3.6,2.4-9.4,4.8-13.7,4.6c-10.8-1.9-12.5-9.5-12.6-16.7
			c0.8-21.8,26.5-28.2,41.8-16C284.1,282.5,282.7,309.6,266.7,321.3z"/>
	</g>
</g>
</svg>
