<?xml version="1.0" encoding="utf-8"?>
<!-- Generator: Adobe Illustrator 13.0.0, SVG Export Plug-In . SVG Version: 6.00 Build 14948)  -->
<svg version="1.2" baseProfile="tiny" id="Layer_1" xmlns="http://www.w3.org/2000/svg" xmlns:xlink="http://www.w3.org/1999/xlink"
	 x="0px" y="0px" width="451.6px" height="451.6px" viewBox="0 0 451.6 451.6" xml:space="preserve">
<g id="Capa_1">
</g>
<path fill="#D6D6D6" d="M353.3,177.3c-3.4-7.2-9.4-18.2-21-29.5c16-54.8-32.5-89.5-63-90C250,37.5,204,37.1,189.4,39.5
	c-6,1-22.5,6.5-24.8,12.5c-3.1,8.1,7.4,17,16.4,11c-8.5,6.3-11,13-13.2,18.3c-34.2-2.6-54,30.5-47.6,53c-2.3,2.6-4.8,5.2-7.3,8
	c-15.8,19.8-16.1,48.5-1,68.8c-4.9,13.4-4.6,28.7,0.5,41.9c4.9,12.5,14.7,19.5,22.9,29.5c-1.4,25.6,5,56.8,61.9,63.4
	c-14,20-22.8,53.4-13.6,72.3c10.4,21.1,40.7,21.4,60.7,17.6c42.7-6.2,111-68,83.5-98c47.2-40.2,49.2-75.5,17.8-102.5
	C361.1,224,359.6,190.6,353.3,177.3z M345.6,275.3c-2.7,15-4.3,22.3-17.8,35.5c-9.2,7.5-34.7,19.1-43,20.5c2,5,21.4,15.8,21.5,21.5
	c0.6,20.9-10.9,36.7-25.8,47.2c-17,12.1-38.3,20.2-59.4,18.4c-7.3-0.6-19.2-1.7-21.6-10.2c-3-10.1-0.2-21.5,3.1-31.1
	c4.6-13.4,13.8-30.6,20.1-43.1l1.1-1.7l-2-0.5c-47,4-71-26.3-62.5-49.3l4-15.5l-8-3.7c-27.5-8-35.5-33-19.1-52.6l2.5-5.2l-3.9-4.2
	c-22-10.5-22.2-47.1,0.8-58.4l5.2-2.6l-0.5-5.8c6-24.8,11.3-26.9,30-34.9l13.3-3.3L185,80c30-49,76.3-1.2,76.3-1.2
	c33-11.8,67.7,28.2,54.4,67.1l-4.6,6.7l6.5,4.9c20,16.8,34,44.1,11.7,71l-10.7,9.5l9.6,5.8C340.9,251.4,344.1,259.8,345.6,275.3z"/>
<circle fill="#F4F4F4" cx="270.8" cy="370.1" r="12.3"/>
<g id="Layer_2_1_">
	<path fill="#D6D6D6" d="M283,318.5c-20,14.5-1.4,41.7,17.7,25.8c0,0.1,8.7-7.4,12.4-13c6.5-9.8,5.1-10.8,6.8-17
		c6.4-22.3-0.2-47.7-18.6-62.4c-17.7-14.1-44.1-14.5-61.3,0.9c-15.7,14.2-20.1,39.7-1.9,54.9c10.3,6.5,16.3,6.4,25.7,2.8
		c6.5-2.5,19.4-15.9,13.8-20.3c-3.3-2.6-6.2,3.3-8.5,4.9c-3.6,2.4-9.4,4.8-13.7,4.6c-10.8-1.9-12.5-9.5-12.6-16.7
		c0.8-21.8,26.5-28.2,41.8-16C300.4,279.7,299,306.8,283,318.5z"/>
</g>
<path fill="#AFAFAF" d="M263,144.6c5.7,12,2.2,30.4-2.5,42c16.4-10.4,24.4-36.4,15.8-54.3c-9.3-19.4-31-30-49.5-25
	c-14.1,3.8-24.9,25.8-27.5,28C229.8,111.3,254.6,127.1,263,144.6z"/>
<path fill="#AFAFAF" d="M185.1,188.8c9.8-8.9,29.2-11.6,41.7-10.4c-14.7-12.7-36.9-12.8-51.6,0.6c-16,14.4-17.2,39.1-2.8,55.1
	c2.3,2.6,4.9,4.7,7.7,6.5C173.2,223.4,170.8,201.8,185.1,188.8z"/>
</svg>
